<?xml version="1.0" encoding="UTF-8" standalone="no"?>
<!DOCTYPE svg PUBLIC "-//W3C//DTD SVG 1.1//EN" "http://www.w3.org/Graphics/SVG/1.1/DTD/svg11.dtd">
<svg width="120px" height="120px" viewBox="0 0 120 120" version="1.1" xmlns="http://www.w3.org/2000/svg" xmlns:xlink="http://www.w3.org/1999/xlink" xml:space="preserve" xmlns:serif="http://www.serif.com/" style="fill-rule:evenodd;clip-rule:evenodd;stroke-linejoin:round;stroke-miterlimit:2;">
    <g transform="matrix(1,0,0,1,-746.429,-60)">
        <g transform="matrix(0.229885,0,0,0.229885,740.45,-64.1379)">
            <g transform="matrix(1.33663,0,0,1.33663,-242.64,405.012)">
                <path d="M545.998,262.4C553.057,255.242 563.606,252.787 573.1,256.094C582.594,259.401 589.336,267.878 590.42,277.873C591.097,285.145 591.527,292.523 591.527,300C591.527,405.707 505.707,491.527 400,491.527C294.293,491.527 208.473,405.707 208.473,300C208.473,194.293 294.293,108.473 400,108.473C447.18,108.473 490.399,125.57 523.793,153.899C529.301,158.564 532.616,165.313 532.94,172.525C533.263,179.736 530.566,186.755 525.497,191.894C486.783,231.296 399.483,319.802 399.483,319.802C399.483,319.802 336.71,259.019 336.71,259.019C324.023,246.734 303.747,247.06 291.461,259.748C279.176,272.436 279.502,292.711 292.19,304.997L377.74,387.834C390.353,400.048 410.452,399.817 422.782,387.317C422.782,387.317 500.471,308.556 545.998,262.4Z" style="fill-opacity:0.15;"/>
            </g>
            <g transform="matrix(1.33663,0,0,1.33663,-252.64,395.012)">
                <path d="M545.998,262.4C553.057,255.242 563.606,252.787 573.1,256.094C582.594,259.401 589.336,267.878 590.42,277.873C591.097,285.145 591.527,292.523 591.527,300C591.527,405.707 505.707,491.527 400,491.527C294.293,491.527 208.473,405.707 208.473,300C208.473,194.293 294.293,108.473 400,108.473C447.18,108.473 490.399,125.57 523.793,153.899C529.301,158.564 532.616,165.313 532.94,172.525C533.263,179.736 530.566,186.755 525.497,191.894C486.783,231.296 399.483,319.802 399.483,319.802C399.483,319.802 399.483,319.802 399.483,319.802C343.872,265.953 313.308,237.186 291.461,259.748C279.176,272.436 279.502,292.711 292.19,304.997L377.74,387.834C390.353,400.048 410.452,399.817 422.782,387.317C422.782,387.317 500.471,308.556 545.998,262.4Z" style="fill:rgb(119,134,255);"/>
                <clipPath id="_clip1">
                    <path d="M545.998,262.4C553.057,255.242 563.606,252.787 573.1,256.094C582.594,259.401 589.336,267.878 590.42,277.873C591.097,285.145 591.527,292.523 591.527,300C591.527,405.707 505.707,491.527 400,491.527C294.293,491.527 208.473,405.707 208.473,300C208.473,194.293 294.293,108.473 400,108.473C447.18,108.473 490.399,125.57 523.793,153.899C529.301,158.564 532.616,165.313 532.94,172.525C533.263,179.736 530.566,186.755 525.497,191.894C486.783,231.296 399.483,319.802 399.483,319.802C399.483,319.802 399.483,319.802 399.483,319.802C343.872,265.953 313.308,237.186 291.461,259.748C279.176,272.436 279.502,292.711 292.19,304.997L377.74,387.834C390.353,400.048 410.452,399.817 422.782,387.317C422.782,387.317 500.471,308.556 545.998,262.4Z"/>
                </clipPath>
                <g clip-path="url(#_clip1)">
                    <g transform="matrix(2.92865,0,0,2.92865,-1232.19,-642.089)">
                        <circle cx="491.922" cy="384.146" r="99.605" style="fill:rgb(139,204,255);"/>
                    </g>
                    <g transform="matrix(1.92286,0,0,1.92286,-737.424,-255.72)">
                        <circle cx="491.922" cy="384.146" r="99.605" style="fill:rgb(119,237,172);"/>
                    </g>
                </g>
            </g>
        </g>
    </g>
</svg>
