<?xml version="1.0" encoding="UTF-8" standalone="no"?>
<!DOCTYPE svg PUBLIC "-//W3C//DTD SVG 1.1//EN" "http://www.w3.org/Graphics/SVG/1.1/DTD/svg11.dtd">
<svg width="512px" height="512px" viewBox="0 0 512 512" version="1.1" xmlns="http://www.w3.org/2000/svg" xmlns:xlink="http://www.w3.org/1999/xlink" xml:space="preserve" xmlns:serif="http://www.serif.com/" style="fill-rule:evenodd;clip-rule:evenodd;stroke-linejoin:round;stroke-miterlimit:2;">
    <g transform="matrix(1,0,0,1,-1335.37,-28)">
        <g transform="matrix(0.980843,0,0,0.980843,1309.86,-501.655)">
            <g transform="matrix(1.33663,0,0,1.33663,-242.64,405.012)">
                <path d="M556.566,251.686C561.3,246.887 568.287,245.078 574.755,246.976C581.223,248.874 586.124,254.173 587.513,260.769C590.139,273.435 591.527,286.557 591.527,300C591.527,405.707 505.707,491.527 400,491.527C294.293,491.527 208.473,405.707 208.473,300C208.473,194.293 294.293,108.473 400,108.473C450.525,108.473 496.506,128.079 530.743,160.091C534.312,163.459 536.372,168.123 536.46,173.03C536.547,177.936 534.654,182.671 531.208,186.164C496.177,221.773 399.483,319.802 399.483,319.802C399.483,319.802 336.71,259.019 336.71,259.019C324.023,246.734 303.747,247.06 291.461,259.748C279.176,272.436 279.502,292.711 292.19,304.997L377.74,387.834C390.353,400.048 410.452,399.817 422.782,387.317C422.782,387.317 513.845,294.997 556.566,251.686Z" style="fill-opacity:0.15;"/>
            </g>
            <g transform="matrix(1.33663,0,0,1.33663,-252.64,395.012)">
                <path d="M556.566,251.686C561.3,246.887 568.287,245.078 574.755,246.976C581.223,248.874 586.124,254.173 587.513,260.769C590.139,273.435 591.527,286.557 591.527,300C591.527,405.707 505.707,491.527 400,491.527C294.293,491.527 208.473,405.707 208.473,300C208.473,194.293 294.293,108.473 400,108.473C450.525,108.473 496.506,128.079 530.743,160.091C534.312,163.459 536.372,168.123 536.46,173.03C536.547,177.936 534.654,182.671 531.208,186.164C496.177,221.773 399.483,319.802 399.483,319.802C399.483,319.802 399.483,319.802 399.483,319.802C343.872,265.953 313.308,237.186 291.461,259.748C279.176,272.436 279.502,292.711 292.19,304.997L377.74,387.834C390.353,400.048 410.452,399.817 422.782,387.317C422.782,387.317 513.845,294.997 556.566,251.686Z" style="fill:rgb(119,134,255);"/>
                <clipPath id="_clip1">
                    <path d="M556.566,251.686C561.3,246.887 568.287,245.078 574.755,246.976C581.223,248.874 586.124,254.173 587.513,260.769C590.139,273.435 591.527,286.557 591.527,300C591.527,405.707 505.707,491.527 400,491.527C294.293,491.527 208.473,405.707 208.473,300C208.473,194.293 294.293,108.473 400,108.473C450.525,108.473 496.506,128.079 530.743,160.091C534.312,163.459 536.372,168.123 536.46,173.03C536.547,177.936 534.654,182.671 531.208,186.164C496.177,221.773 399.483,319.802 399.483,319.802C399.483,319.802 399.483,319.802 399.483,319.802C343.872,265.953 313.308,237.186 291.461,259.748C279.176,272.436 279.502,292.711 292.19,304.997L377.74,387.834C390.353,400.048 410.452,399.817 422.782,387.317C422.782,387.317 513.845,294.997 556.566,251.686Z"/>
                </clipPath>
                <g clip-path="url(#_clip1)">
                    <g transform="matrix(2.92865,0,0,2.92865,-1232.19,-642.089)">
                        <circle cx="491.922" cy="384.146" r="99.605" style="fill:rgb(139,204,255);"/>
                    </g>
                    <g transform="matrix(1.92286,0,0,1.92286,-737.424,-255.72)">
                        <circle cx="491.922" cy="384.146" r="99.605" style="fill:rgb(119,237,172);"/>
                    </g>
                </g>
            </g>
        </g>
    </g>
</svg>
