<?xml version="1.0" encoding="UTF-8" standalone="no"?>
<!DOCTYPE svg PUBLIC "-//W3C//DTD SVG 1.1//EN" "http://www.w3.org/Graphics/SVG/1.1/DTD/svg11.dtd">
<svg width="384px" height="384px" viewBox="0 0 384 384" version="1.1" xmlns="http://www.w3.org/2000/svg" xmlns:xlink="http://www.w3.org/1999/xlink" xml:space="preserve" xmlns:serif="http://www.serif.com/" style="fill-rule:evenodd;clip-rule:evenodd;stroke-linejoin:round;stroke-miterlimit:2;">
    <g transform="matrix(1,0,0,1,-801.417,-92)">
        <g transform="matrix(0.735632,0,0,0.735632,782.282,-305.241)">
            <g transform="matrix(1.33663,0,0,1.33663,-242.64,405.012)">
                <path d="M548.214,260.154C554.754,253.523 564.498,251.192 573.331,254.144C582.164,257.097 588.547,264.82 589.784,274.051C590.932,282.537 591.527,291.2 591.527,300C591.527,405.707 505.707,491.527 400,491.527C294.293,491.527 208.473,405.707 208.473,300C208.473,194.293 294.293,108.473 400,108.473C447.915,108.473 491.744,126.106 525.345,155.231C530.419,159.632 533.445,165.936 533.706,172.648C533.967,179.359 531.439,185.879 526.722,190.661C488.65,229.404 399.483,319.802 399.483,319.802C399.483,319.802 336.71,259.019 336.71,259.019C324.023,246.734 303.747,247.06 291.461,259.748C279.176,272.436 279.502,292.711 292.19,304.997L377.74,387.834C390.353,400.048 410.452,399.817 422.782,387.317C422.782,387.317 503.043,305.948 548.214,260.154Z" style="fill-opacity:0.15;"/>
            </g>
            <g transform="matrix(1.33663,0,0,1.33663,-252.64,395.012)">
                <path d="M548.214,260.154C554.754,253.523 564.498,251.192 573.331,254.144C582.164,257.097 588.547,264.82 589.784,274.051C590.932,282.537 591.527,291.2 591.527,300C591.527,405.707 505.707,491.527 400,491.527C294.293,491.527 208.473,405.707 208.473,300C208.473,194.293 294.293,108.473 400,108.473C447.915,108.473 491.744,126.106 525.345,155.231C530.419,159.632 533.445,165.936 533.706,172.648C533.967,179.359 531.439,185.879 526.722,190.661C488.65,229.404 399.483,319.802 399.483,319.802C399.483,319.802 399.483,319.802 399.483,319.802C343.872,265.953 313.308,237.186 291.461,259.748C279.176,272.436 279.502,292.711 292.19,304.997L377.74,387.834C390.353,400.048 410.452,399.817 422.782,387.317C422.782,387.317 503.043,305.948 548.214,260.154Z" style="fill:rgb(119,134,255);"/>
                <clipPath id="_clip1">
                    <path d="M548.214,260.154C554.754,253.523 564.498,251.192 573.331,254.144C582.164,257.097 588.547,264.82 589.784,274.051C590.932,282.537 591.527,291.2 591.527,300C591.527,405.707 505.707,491.527 400,491.527C294.293,491.527 208.473,405.707 208.473,300C208.473,194.293 294.293,108.473 400,108.473C447.915,108.473 491.744,126.106 525.345,155.231C530.419,159.632 533.445,165.936 533.706,172.648C533.967,179.359 531.439,185.879 526.722,190.661C488.65,229.404 399.483,319.802 399.483,319.802C399.483,319.802 399.483,319.802 399.483,319.802C343.872,265.953 313.308,237.186 291.461,259.748C279.176,272.436 279.502,292.711 292.19,304.997L377.74,387.834C390.353,400.048 410.452,399.817 422.782,387.317C422.782,387.317 503.043,305.948 548.214,260.154Z"/>
                </clipPath>
                <g clip-path="url(#_clip1)">
                    <g transform="matrix(2.92865,0,0,2.92865,-1232.19,-642.089)">
                        <circle cx="491.922" cy="384.146" r="99.605" style="fill:rgb(139,204,255);"/>
                    </g>
                    <g transform="matrix(1.92286,0,0,1.92286,-737.424,-255.72)">
                        <circle cx="491.922" cy="384.146" r="99.605" style="fill:rgb(119,237,172);"/>
                    </g>
                </g>
            </g>
        </g>
    </g>
</svg>
