<?xml version="1.0" encoding="UTF-8" standalone="no"?>
<!DOCTYPE svg PUBLIC "-//W3C//DTD SVG 1.1//EN" "http://www.w3.org/Graphics/SVG/1.1/DTD/svg11.dtd">
<svg width="152px" height="152px" viewBox="0 0 152 152" version="1.1" xmlns="http://www.w3.org/2000/svg" xmlns:xlink="http://www.w3.org/1999/xlink" xml:space="preserve" xmlns:serif="http://www.serif.com/" style="fill-rule:evenodd;clip-rule:evenodd;stroke-linejoin:round;stroke-miterlimit:2;">
    <g transform="matrix(1,0,0,1,-618.143,-540)">
        <g transform="matrix(0.291188,0,0,0.291188,610.569,382.759)">
            <g transform="matrix(1.33663,0,0,1.33663,-242.64,405.012)">
                <path d="M553.7,254.593C559.081,249.135 567.052,247.126 574.378,249.379C581.703,251.632 587.167,257.774 588.551,265.312C590.451,276.583 591.527,288.167 591.527,300C591.527,405.707 505.707,491.527 400,491.527C294.293,491.527 208.473,405.707 208.473,300C208.473,194.293 294.293,108.473 400,108.473C449.589,108.473 494.802,127.36 528.83,158.325C532.93,162.082 535.326,167.345 535.466,172.904C535.607,178.463 533.48,183.841 529.575,187.8C493.292,224.698 399.483,319.802 399.483,319.802C399.483,319.802 336.71,259.019 336.71,259.019C324.023,246.734 303.747,247.06 291.461,259.748C279.176,272.436 279.502,292.711 292.19,304.997L377.74,387.834C390.353,400.048 410.452,399.817 422.782,387.317C422.782,387.317 509.911,298.985 553.7,254.593Z" style="fill-opacity:0.15;"/>
            </g>
            <g transform="matrix(1.33663,0,0,1.33663,-252.64,395.012)">
                <path d="M553.7,254.593C559.081,249.135 567.052,247.126 574.378,249.379C581.703,251.632 587.167,257.774 588.551,265.312C590.451,276.583 591.527,288.167 591.527,300C591.527,405.707 505.707,491.527 400,491.527C294.293,491.527 208.473,405.707 208.473,300C208.473,194.293 294.293,108.473 400,108.473C449.589,108.473 494.802,127.36 528.83,158.325C532.93,162.082 535.326,167.345 535.466,172.904C535.607,178.463 533.48,183.841 529.575,187.8C493.292,224.698 399.483,319.802 399.483,319.802C399.483,319.802 399.483,319.802 399.483,319.802C343.872,265.953 313.308,237.186 291.461,259.748C279.176,272.436 279.502,292.711 292.19,304.997L377.74,387.834C390.353,400.048 410.452,399.817 422.782,387.317C422.782,387.317 509.911,298.985 553.7,254.593Z" style="fill:rgb(119,134,255);"/>
                <clipPath id="_clip1">
                    <path d="M553.7,254.593C559.081,249.135 567.052,247.126 574.378,249.379C581.703,251.632 587.167,257.774 588.551,265.312C590.451,276.583 591.527,288.167 591.527,300C591.527,405.707 505.707,491.527 400,491.527C294.293,491.527 208.473,405.707 208.473,300C208.473,194.293 294.293,108.473 400,108.473C449.589,108.473 494.802,127.36 528.83,158.325C532.93,162.082 535.326,167.345 535.466,172.904C535.607,178.463 533.48,183.841 529.575,187.8C493.292,224.698 399.483,319.802 399.483,319.802C399.483,319.802 399.483,319.802 399.483,319.802C343.872,265.953 313.308,237.186 291.461,259.748C279.176,272.436 279.502,292.711 292.19,304.997L377.74,387.834C390.353,400.048 410.452,399.817 422.782,387.317C422.782,387.317 509.911,298.985 553.7,254.593Z"/>
                </clipPath>
                <g clip-path="url(#_clip1)">
                    <g transform="matrix(2.92865,0,0,2.92865,-1232.19,-642.089)">
                        <circle cx="491.922" cy="384.146" r="99.605" style="fill:rgb(139,204,255);"/>
                    </g>
                    <g transform="matrix(1.92286,0,0,1.92286,-737.424,-255.72)">
                        <circle cx="491.922" cy="384.146" r="99.605" style="fill:rgb(119,237,172);"/>
                    </g>
                </g>
            </g>
        </g>
    </g>
</svg>
