<?xml version="1.0" encoding="UTF-8" standalone="no"?>
<!DOCTYPE svg PUBLIC "-//W3C//DTD SVG 1.1//EN" "http://www.w3.org/Graphics/SVG/1.1/DTD/svg11.dtd">
<svg width="100%" height="100%" viewBox="0 0 800 204" version="1.1" xmlns="http://www.w3.org/2000/svg" xmlns:xlink="http://www.w3.org/1999/xlink" xml:space="preserve" xmlns:serif="http://www.serif.com/" style="fill-rule:evenodd;clip-rule:evenodd;stroke-linejoin:round;stroke-miterlimit:2;">
    <g transform="matrix(1,0,0,1,0,-192.768)">
        <g transform="matrix(0.501235,0,0,0.501235,-104.494,149.629)">
            <g id="logo-earth">
                <path id="main" d="M559.677,248.533C563.743,244.41 569.723,242.812 575.303,244.358C580.884,245.905 585.189,250.352 586.553,255.98C589.767,270.134 591.527,284.863 591.527,300C591.527,405.707 505.707,491.527 400,491.527C294.293,491.527 208.473,405.707 208.473,300C208.473,194.293 294.293,108.473 400,108.473C444.385,108.473 485.263,123.604 517.754,148.982C524.959,154.549 529.435,162.936 530.047,172.02C530.659,181.105 527.349,190.016 520.955,196.499C480.384,237.784 399.483,319.802 399.483,319.802C399.483,319.802 336.71,259.019 336.71,259.019C324.023,246.734 303.747,247.06 291.461,259.748C279.176,272.436 279.502,292.711 292.19,304.997L377.74,387.834C390.353,400.048 410.452,399.817 422.782,387.317C422.782,387.317 518.454,290.325 559.677,248.533Z" style="fill:rgb(119,134,255);"/>
                <clipPath id="_clip1">
                    <path id="main1" serif:id="main" d="M559.677,248.533C563.743,244.41 569.723,242.812 575.303,244.358C580.884,245.905 585.189,250.352 586.553,255.98C589.767,270.134 591.527,284.863 591.527,300C591.527,405.707 505.707,491.527 400,491.527C294.293,491.527 208.473,405.707 208.473,300C208.473,194.293 294.293,108.473 400,108.473C444.385,108.473 485.263,123.604 517.754,148.982C524.959,154.549 529.435,162.936 530.047,172.02C530.659,181.105 527.349,190.016 520.955,196.499C480.384,237.784 399.483,319.802 399.483,319.802C399.483,319.802 336.71,259.019 336.71,259.019C324.023,246.734 303.747,247.06 291.461,259.748C279.176,272.436 279.502,292.711 292.19,304.997L377.74,387.834C390.353,400.048 410.452,399.817 422.782,387.317C422.782,387.317 518.454,290.325 559.677,248.533Z"/>
                </clipPath>
                <g clip-path="url(#_clip1)">
                    <g id="logo-sea" transform="matrix(2.92865,0,0,2.92865,-1232.19,-642.089)">
                        <circle cx="491.922" cy="384.146" r="99.605" style="fill:rgb(139,204,255);"/>
                    </g>
                    <g id="logo-land" transform="matrix(1.92286,0,0,1.92286,-737.424,-255.72)">
                        <circle cx="491.922" cy="384.146" r="99.605" style="fill:rgb(119,237,172);"/>
                    </g>
                </g>
            </g>
        </g>
        <g id="CHISK" transform="matrix(15.1951,0,0,15.1951,-5529.47,-4725.7)">
            <path id="C" d="M386.698,332.745C386.728,332.629 386.833,332.548 386.953,332.548C387.162,332.548 387.489,332.548 387.738,332.548C387.824,332.548 387.904,332.59 387.953,332.66C388.003,332.731 388.015,332.821 387.985,332.901C387.732,333.61 387.338,334.027 386.802,334.451C386.183,334.942 385.426,335.187 384.532,335.187C383.606,335.187 382.853,334.998 382.273,334.621C381.693,334.244 381.251,333.698 380.949,332.984C380.646,332.269 380.495,331.501 380.495,330.681C380.495,329.786 380.666,329.006 381.007,328.34C381.349,327.674 381.835,327.168 382.466,326.822C383.097,326.477 383.792,326.304 384.549,326.304C385.409,326.304 386.131,326.523 386.717,326.96C387.215,327.332 387.63,327.93 387.886,328.588C387.915,328.668 387.904,328.758 387.855,328.829C387.806,328.899 387.726,328.941 387.641,328.941C387.392,328.943 387.074,328.943 386.874,328.943C386.762,328.943 386.662,328.872 386.625,328.766C386.453,328.253 386.297,327.961 385.956,327.704C385.577,327.419 385.1,327.277 384.526,327.277C383.866,327.277 383.314,327.435 382.871,327.751C382.427,328.068 382.116,328.492 381.936,329.026C381.756,329.559 381.667,330.109 381.667,330.675C381.667,331.405 381.773,332.043 381.986,332.588C382.199,333.133 382.53,333.54 382.979,333.81C383.428,334.079 383.915,334.214 384.438,334.214C385.075,334.214 385.614,334.03 386.055,333.663C386.452,333.333 386.566,333.279 386.698,332.745Z" style="fill:rgb(119,134,255);fill-rule:nonzero;"/>
            <clipPath id="_clip2">
                <path id="C1" serif:id="C" d="M386.698,332.745C386.728,332.629 386.833,332.548 386.953,332.548C387.162,332.548 387.489,332.548 387.738,332.548C387.824,332.548 387.904,332.59 387.953,332.66C388.003,332.731 388.015,332.821 387.985,332.901C387.732,333.61 387.338,334.027 386.802,334.451C386.183,334.942 385.426,335.187 384.532,335.187C383.606,335.187 382.853,334.998 382.273,334.621C381.693,334.244 381.251,333.698 380.949,332.984C380.646,332.269 380.495,331.501 380.495,330.681C380.495,329.786 380.666,329.006 381.007,328.34C381.349,327.674 381.835,327.168 382.466,326.822C383.097,326.477 383.792,326.304 384.549,326.304C385.409,326.304 386.131,326.523 386.717,326.96C387.215,327.332 387.63,327.93 387.886,328.588C387.915,328.668 387.904,328.758 387.855,328.829C387.806,328.899 387.726,328.941 387.641,328.941C387.392,328.943 387.074,328.943 386.874,328.943C386.762,328.943 386.662,328.872 386.625,328.766C386.453,328.253 386.297,327.961 385.956,327.704C385.577,327.419 385.1,327.277 384.526,327.277C383.866,327.277 383.314,327.435 382.871,327.751C382.427,328.068 382.116,328.492 381.936,329.026C381.756,329.559 381.667,330.109 381.667,330.675C381.667,331.405 381.773,332.043 381.986,332.588C382.199,333.133 382.53,333.54 382.979,333.81C383.428,334.079 383.915,334.214 384.438,334.214C385.075,334.214 385.614,334.03 386.055,333.663C386.452,333.333 386.566,333.279 386.698,332.745Z" clip-rule="nonzero"/>
            </clipPath>
            <g clip-path="url(#_clip2)">
                <g transform="matrix(0.0786488,0,0,0.0786488,341.45,293.453)">
                    <path d="M615.616,421.867C614.936,419.313 612.817,417.397 610.208,416.979C594.749,414.498 542.272,406.077 531.82,404.4C530.629,404.209 529.408,404.343 528.287,404.788C522.122,407.238 501.004,415.628 493.057,418.785C491.129,419.551 489.665,421.168 489.094,423.162C486.97,430.573 481.744,448.804 480.348,453.676C480.118,454.478 480.04,455.317 480.118,456.147C480.713,462.475 483.367,490.69 483.743,494.684C483.772,494.997 483.824,495.308 483.897,495.614C484.328,497.417 485.958,504.23 487.543,510.858C488.153,513.41 490.198,515.37 492.773,515.872C495.348,516.374 497.978,515.325 499.502,513.19C509.343,499.402 524.954,477.531 531.138,468.866C532.736,466.627 535.542,465.593 538.21,466.261C552.988,469.955 600.94,481.943 622.776,487.402C625.074,487.977 627.506,487.293 629.168,485.605C630.831,483.917 631.478,481.476 630.868,479.186C626.522,462.852 618.546,432.877 615.616,421.867Z" style="fill:rgb(139,204,255);"/>
                </g>
                <g transform="matrix(0.0658108,0,0,0.0658108,348.184,298.817)">
                    <path d="M615.834,422.686C615.022,419.634 612.489,417.345 609.37,416.844C593.124,414.237 543.21,406.228 532.175,404.457C530.751,404.228 529.293,404.389 527.953,404.921C521.554,407.464 501.863,415.287 493.653,418.548C491.349,419.464 489.6,421.396 488.917,423.779C486.729,431.414 481.866,448.381 480.416,453.439C480.141,454.398 480.048,455.4 480.141,456.393C480.774,463.12 483.333,490.331 483.734,494.592C483.769,494.967 483.831,495.338 483.918,495.704C484.314,497.358 485.549,502.52 486.876,508.07C487.605,511.119 490.049,513.461 493.126,514.061C496.203,514.661 499.347,513.408 501.168,510.856C510.745,497.438 524.488,478.184 530.621,469.59C532.531,466.914 535.884,465.679 539.073,466.476C554.265,470.274 598.378,481.303 620.628,486.865C623.375,487.552 626.28,486.735 628.267,484.718C630.254,482.7 631.027,479.783 630.299,477.047C625.968,460.77 618.79,433.796 615.834,422.686Z" style="fill:rgb(119,237,172);"/>
                </g>
            </g>
            <path id="H" d="M389.787,335.04C389.642,335.04 389.524,334.922 389.524,334.777L389.524,326.714C389.524,326.568 389.642,326.45 389.787,326.45L390.397,326.45C390.467,326.45 390.534,326.478 390.584,326.527C390.633,326.577 390.661,326.644 390.661,326.714L390.661,329.978L395.126,329.978L395.126,326.714C395.126,326.644 395.153,326.577 395.203,326.527C395.252,326.478 395.319,326.45 395.389,326.45L395.999,326.45C396.144,326.45 396.262,326.568 396.262,326.714L396.262,334.777C396.262,334.922 396.144,335.04 395.999,335.04L395.389,335.04C395.319,335.04 395.252,335.012 395.203,334.963C395.153,334.914 395.126,334.847 395.126,334.777C395.126,333.879 395.126,330.991 395.126,330.991L390.661,330.991L390.661,334.777C390.661,334.847 390.633,334.914 390.584,334.963C390.534,335.012 390.467,335.04 390.397,335.04C390.214,335.04 389.971,335.04 389.787,335.04Z" style="fill:rgb(119,134,255);fill-rule:nonzero;"/>
            <clipPath id="_clip3">
                <path id="H1" serif:id="H" d="M389.787,335.04C389.642,335.04 389.524,334.922 389.524,334.777L389.524,326.714C389.524,326.568 389.642,326.45 389.787,326.45L390.397,326.45C390.467,326.45 390.534,326.478 390.584,326.527C390.633,326.577 390.661,326.644 390.661,326.714L390.661,329.978L395.126,329.978L395.126,326.714C395.126,326.644 395.153,326.577 395.203,326.527C395.252,326.478 395.319,326.45 395.389,326.45L395.999,326.45C396.144,326.45 396.262,326.568 396.262,326.714L396.262,334.777C396.262,334.922 396.144,335.04 395.999,335.04L395.389,335.04C395.319,335.04 395.252,335.012 395.203,334.963C395.153,334.914 395.126,334.847 395.126,334.777C395.126,333.879 395.126,330.991 395.126,330.991L390.661,330.991L390.661,334.777C390.661,334.847 390.633,334.914 390.584,334.963C390.534,335.012 390.467,335.04 390.397,335.04C390.214,335.04 389.971,335.04 389.787,335.04Z" clip-rule="nonzero"/>
            </clipPath>
            <g clip-path="url(#_clip3)">
                <g transform="matrix(0.0812937,0,0,0.0812937,348.549,291.618)">
                    <path d="M613.89,423.74C614.232,420.33 611.856,417.243 608.472,416.7C591.131,413.917 541.716,405.988 531.76,404.39C530.608,404.206 529.428,404.335 528.343,404.766C522.224,407.197 500.85,415.689 492.958,418.825C491.092,419.566 489.676,421.13 489.123,423.059C487.123,430.036 482.269,446.974 480.586,452.846C480.205,454.174 480.259,455.589 480.74,456.884C483.967,465.575 496.914,500.449 503.063,517.014C503.805,519.012 505.483,520.518 507.549,521.039C509.616,521.561 511.807,521.033 513.408,519.626C514.516,518.654 515.523,517.77 516.22,517.157C516.866,516.59 517.393,515.899 517.769,515.126C519.698,511.164 526.007,498.204 528.73,492.61C529.538,490.949 531.016,489.713 532.793,489.211C544.66,485.861 590.937,472.797 605.254,468.756C607.815,468.033 609.673,465.817 609.938,463.169C610.833,454.237 612.868,433.932 613.89,423.74Z" style="fill:rgb(139,204,255);"/>
                </g>
                <g transform="matrix(0.0658108,0,0,0.0658108,357.022,298.817)">
                    <path d="M613.747,425.169C614.169,420.956 611.235,417.143 607.054,416.473C588.836,413.549 542.728,406.15 532.175,404.457C530.751,404.228 529.293,404.389 527.953,404.921C521.554,407.464 501.863,415.287 493.653,418.548C491.349,419.464 489.6,421.396 488.917,423.779C486.864,430.94 482.459,446.31 480.724,452.365C480.254,454.005 480.32,455.753 480.914,457.353C484.266,466.38 496.007,498.006 502.293,514.939C503.209,517.407 505.281,519.267 507.834,519.911C510.387,520.556 513.094,519.903 515.072,518.166C515.408,517.87 515.717,517.599 515.99,517.36C516.788,516.658 517.439,515.805 517.904,514.85C519.901,510.747 525.636,498.966 528.431,493.224C529.429,491.173 531.255,489.646 533.45,489.026C545.987,485.487 589.178,473.294 604.255,469.038C607.419,468.144 609.714,465.407 610.042,462.136C610.938,453.191 612.729,435.322 613.747,425.169Z" style="fill:rgb(119,237,172);"/>
                </g>
            </g>
            <path id="I" d="M398.611,335.04C398.466,335.04 398.348,334.922 398.348,334.777L398.348,326.714C398.348,326.568 398.466,326.45 398.611,326.45L399.222,326.45C399.367,326.45 399.485,326.568 399.485,326.714L399.485,334.777C399.485,334.922 399.367,335.04 399.222,335.04L398.611,335.04Z" style="fill:rgb(119,134,255);fill-rule:nonzero;"/>
            <clipPath id="_clip4">
                <path id="I1" serif:id="I" d="M398.611,335.04C398.466,335.04 398.348,334.922 398.348,334.777L398.348,326.714C398.348,326.568 398.466,326.45 398.611,326.45L399.222,326.45C399.367,326.45 399.485,326.568 399.485,326.714L399.485,334.777C399.485,334.922 399.367,335.04 399.222,335.04L398.611,335.04Z" clip-rule="nonzero"/>
            </clipPath>
            <g clip-path="url(#_clip4)">
                <g transform="matrix(0.0740764,0,0,0.0740764,360.186,300.249)">
                    <path d="M544.457,406.238C544.57,405.085 544.399,403.922 543.96,402.85C541.812,397.61 534.973,380.921 530.508,370.027C529.607,367.827 527.666,366.224 525.335,365.754C523.005,365.285 520.594,366.012 518.911,367.691C515.333,371.263 511.306,375.281 508.816,377.766C507.302,379.277 506.549,381.39 506.766,383.519C508.161,397.178 513.351,447.989 513.839,452.761C513.863,453.001 513.876,453.242 513.876,453.484C513.876,455.978 513.876,470.784 513.876,479.688C513.876,483.481 516.854,486.605 520.643,486.787C527.307,487.106 536.495,487.546 536.495,487.546C536.495,487.546 543.283,418.225 544.457,406.238Z" style="fill:rgb(139,204,255);"/>
                </g>
                <g transform="matrix(0.0658108,0,0,0.0658108,364.53,303.753)">
                    <path d="M544.435,406.458C544.562,405.161 544.37,403.851 543.876,402.645C541.724,397.393 535.417,382.004 531.017,371.266C530.002,368.79 527.817,366.986 525.194,366.457C522.57,365.929 519.857,366.747 517.963,368.637C514.783,371.811 511.393,375.194 509.117,377.466C507.412,379.167 506.564,381.546 506.809,383.941C508.26,398.149 513.325,447.728 513.834,452.716C513.862,452.986 513.876,453.258 513.876,453.529L513.876,478.837C513.876,483.106 517.228,486.623 521.493,486.828C528.061,487.142 536.495,487.546 536.495,487.546C536.495,487.546 543.202,419.049 544.435,406.458Z" style="fill:rgb(119,237,172);"/>
                </g>
            </g>
            <path id="S" d="M401.096,332.478C401.088,332.404 401.112,332.331 401.161,332.276C401.211,332.221 401.281,332.189 401.355,332.189C401.54,332.187 401.777,332.187 401.949,332.187C402.076,332.187 402.185,332.278 402.208,332.403C402.268,332.736 402.375,333.017 402.529,333.244C402.714,333.52 403.002,333.742 403.393,333.912C403.784,334.082 404.223,334.167 404.711,334.167C405.145,334.167 405.528,334.103 405.86,333.974C406.192,333.845 406.439,333.668 406.601,333.444C406.763,333.219 406.844,332.974 406.844,332.708C406.844,332.439 406.766,332.203 406.61,332.002C406.454,331.801 406.196,331.632 405.836,331.495C405.606,331.405 405.096,331.266 404.307,331.076C403.518,330.887 402.965,330.708 402.649,330.54C402.239,330.325 401.933,330.059 401.732,329.74C401.531,329.422 401.43,329.066 401.43,328.671C401.43,328.237 401.553,327.832 401.799,327.455C402.045,327.078 402.405,326.792 402.877,326.597C403.35,326.402 403.876,326.304 404.454,326.304C405.09,326.304 405.652,326.406 406.138,326.612C406.625,326.817 406.999,327.118 407.26,327.517C407.472,327.839 407.604,328.242 407.657,328.651C407.666,328.725 407.643,328.799 407.594,328.855C407.545,328.91 407.474,328.943 407.4,328.943C407.22,328.947 406.989,328.949 406.821,328.95C406.694,328.951 406.584,328.862 406.56,328.737C406.477,328.3 406.289,327.961 405.998,327.722C405.66,327.445 405.161,327.306 404.501,327.306C403.813,327.306 403.312,327.432 402.998,327.684C402.683,327.936 402.526,328.239 402.526,328.595C402.526,328.903 402.637,329.157 402.86,329.357C403.079,329.556 403.65,329.76 404.574,329.969C405.498,330.178 406.131,330.361 406.475,330.517C406.975,330.747 407.344,331.039 407.583,331.393C407.821,331.746 407.94,332.153 407.94,332.614C407.94,333.071 407.809,333.502 407.547,333.906C407.286,334.311 406.91,334.625 406.419,334.85C405.929,335.074 405.377,335.187 404.764,335.187C403.987,335.187 403.335,335.073 402.81,334.847C402.285,334.62 401.873,334.279 401.574,333.824C401.325,333.446 401.155,332.961 401.096,332.478Z" style="fill:rgb(119,134,255);fill-rule:nonzero;"/>
            <clipPath id="_clip5">
                <path id="S1" serif:id="S" d="M401.096,332.478C401.088,332.404 401.112,332.331 401.161,332.276C401.211,332.221 401.281,332.189 401.355,332.189C401.54,332.187 401.777,332.187 401.949,332.187C402.076,332.187 402.185,332.278 402.208,332.403C402.268,332.736 402.375,333.017 402.529,333.244C402.714,333.52 403.002,333.742 403.393,333.912C403.784,334.082 404.223,334.167 404.711,334.167C405.145,334.167 405.528,334.103 405.86,333.974C406.192,333.845 406.439,333.668 406.601,333.444C406.763,333.219 406.844,332.974 406.844,332.708C406.844,332.439 406.766,332.203 406.61,332.002C406.454,331.801 406.196,331.632 405.836,331.495C405.606,331.405 405.096,331.266 404.307,331.076C403.518,330.887 402.965,330.708 402.649,330.54C402.239,330.325 401.933,330.059 401.732,329.74C401.531,329.422 401.43,329.066 401.43,328.671C401.43,328.237 401.553,327.832 401.799,327.455C402.045,327.078 402.405,326.792 402.877,326.597C403.35,326.402 403.876,326.304 404.454,326.304C405.09,326.304 405.652,326.406 406.138,326.612C406.625,326.817 406.999,327.118 407.26,327.517C407.472,327.839 407.604,328.242 407.657,328.651C407.666,328.725 407.643,328.799 407.594,328.855C407.545,328.91 407.474,328.943 407.4,328.943C407.22,328.947 406.989,328.949 406.821,328.95C406.694,328.951 406.584,328.862 406.56,328.737C406.477,328.3 406.289,327.961 405.998,327.722C405.66,327.445 405.161,327.306 404.501,327.306C403.813,327.306 403.312,327.432 402.998,327.684C402.683,327.936 402.526,328.239 402.526,328.595C402.526,328.903 402.637,329.157 402.86,329.357C403.079,329.556 403.65,329.76 404.574,329.969C405.498,330.178 406.131,330.361 406.475,330.517C406.975,330.747 407.344,331.039 407.583,331.393C407.821,331.746 407.94,332.153 407.94,332.614C407.94,333.071 407.809,333.502 407.547,333.906C407.286,334.311 406.91,334.625 406.419,334.85C405.929,335.074 405.377,335.187 404.764,335.187C403.987,335.187 403.335,335.073 402.81,334.847C402.285,334.62 401.873,334.279 401.574,333.824C401.325,333.446 401.155,332.961 401.096,332.478Z" clip-rule="nonzero"/>
            </clipPath>
            <g clip-path="url(#_clip5)">
                <g transform="matrix(0.0834388,0,0,0.0834388,359.821,295.245)">
                    <path d="M579.573,434.262C579.831,431.689 578.492,429.219 576.196,428.03C566.447,422.982 540.758,409.679 532.556,405.432C530.933,404.591 529.024,404.496 527.325,405.171C520.115,408.035 500.325,415.898 492.882,418.855C491.064,419.577 489.684,421.101 489.146,422.981C487.154,429.929 482.246,447.054 480.571,452.898C480.2,454.192 480.253,455.571 480.721,456.833C483.93,465.476 497.021,500.737 503.148,517.241C503.87,519.188 505.505,520.654 507.518,521.163C509.532,521.671 511.666,521.156 513.227,519.786C514.419,518.739 515.509,517.781 516.245,517.135C516.875,516.582 517.388,515.909 517.755,515.156C519.652,511.258 525.911,498.401 528.671,492.729C529.511,491.004 531.09,489.755 532.962,489.335C540.673,487.602 561.409,482.943 570.559,480.888C573.211,480.292 575.183,478.065 575.454,475.361C576.414,465.785 578.637,443.599 579.573,434.262Z" style="fill:rgb(139,204,255);"/>
                </g>
                <g transform="matrix(0.0658108,0,0,0.0658108,369.164,303.441)">
                    <path d="M579.458,435.404C579.785,432.142 578.089,429.01 575.177,427.502C565.05,422.258 541.801,410.219 533.241,405.786C531.182,404.72 528.763,404.6 526.608,405.455C519.145,408.421 501.352,415.49 493.653,418.548C491.349,419.464 489.6,421.396 488.917,423.779C486.864,430.94 482.459,446.31 480.724,452.365C480.254,454.005 480.32,455.753 480.914,457.353C484.266,466.38 496.007,498.006 502.293,514.939C503.209,517.407 505.281,519.267 507.834,519.911C510.387,520.556 513.094,519.903 515.072,518.166C515.408,517.87 515.717,517.599 515.99,517.36C516.788,516.658 517.439,515.805 517.904,514.85C519.874,510.803 525.481,499.284 528.316,493.46C529.38,491.273 531.382,489.69 533.755,489.156C541.659,487.381 560.048,483.249 569.369,481.155C572.731,480.4 575.232,477.576 575.576,474.148C576.549,464.432 578.508,444.886 579.458,435.404Z" style="fill:rgb(119,237,172);"/>
                </g>
            </g>
            <path id="K" d="M409.709,335.04C409.564,335.04 409.446,334.922 409.446,334.777L409.446,326.714C409.446,326.568 409.564,326.45 409.709,326.45L410.319,326.45C410.465,326.45 410.583,326.568 410.583,326.714L410.583,330.71C410.583,330.71 414.195,327.103 414.771,326.527C414.82,326.478 414.887,326.45 414.957,326.45C415.12,326.45 415.441,326.45 415.738,326.45C415.845,326.45 415.942,326.516 415.982,326.615C416.022,326.714 415.998,326.828 415.921,326.903C414.945,327.845 412.786,329.931 412.786,329.931C412.786,329.931 415.339,333.4 416.239,334.621C416.298,334.701 416.306,334.807 416.262,334.896C416.217,334.984 416.126,335.04 416.027,335.04L415.184,335.04C415.098,335.04 415.018,334.999 414.969,334.928C414.49,334.248 411.989,330.693 411.989,330.693L410.583,332.064L410.583,334.777C410.583,334.922 410.465,335.04 410.319,335.04L409.709,335.04Z" style="fill:rgb(119,134,255);fill-rule:nonzero;"/>
            <clipPath id="_clip6">
                <path id="K1" serif:id="K" d="M409.709,335.04C409.564,335.04 409.446,334.922 409.446,334.777L409.446,326.714C409.446,326.568 409.564,326.45 409.709,326.45L410.319,326.45C410.465,326.45 410.583,326.568 410.583,326.714L410.583,330.71C410.583,330.71 414.195,327.103 414.771,326.527C414.82,326.478 414.887,326.45 414.957,326.45C415.12,326.45 415.441,326.45 415.738,326.45C415.845,326.45 415.942,326.516 415.982,326.615C416.022,326.714 415.998,326.828 415.921,326.903C414.945,327.845 412.786,329.931 412.786,329.931C412.786,329.931 415.339,333.4 416.239,334.621C416.298,334.701 416.306,334.807 416.262,334.896C416.217,334.984 416.126,335.04 416.027,335.04L415.184,335.04C415.098,335.04 415.018,334.999 414.969,334.928C414.49,334.248 411.989,330.693 411.989,330.693L410.583,332.064L410.583,334.777C410.583,334.922 410.465,335.04 410.319,335.04L409.709,335.04Z" clip-rule="nonzero"/>
            </clipPath>
            <g clip-path="url(#_clip6)">
                <g transform="matrix(0.0809186,0,0,0.0809186,371.94,292.144)">
                    <path d="M579.193,434.691C579.674,431.898 578.29,429.115 575.773,427.811C565.757,422.624 540.806,409.704 532.636,405.473C530.962,404.606 528.994,404.508 527.242,405.204C520.334,407.948 502.264,415.127 494.104,418.369C491.626,419.354 490,421.75 490,424.416C490,436.288 490,468.41 490,474.576C490,475.26 490.108,475.939 490.319,476.589C491.912,481.487 499.095,503.568 503.282,516.439C503.959,518.521 505.637,520.122 507.747,520.701C509.858,521.28 512.118,520.76 513.763,519.315C514.727,518.469 515.594,517.707 516.215,517.161C516.865,516.591 517.394,515.897 517.772,515.12C519.767,511.021 526.428,497.337 528.987,492.081C529.642,490.735 530.742,489.656 532.1,489.026C539.108,485.776 561.721,475.288 570.025,471.436C571.964,470.537 573.338,468.743 573.7,466.636C574.926,459.506 577.788,442.861 579.193,434.691Z" style="fill:rgb(139,204,255);"/>
                </g>
                <g transform="matrix(0.0658108,0,0,0.0658108,379.693,299.169)">
                    <path d="M579.008,435.768C579.599,432.333 577.898,428.911 574.803,427.309C564.488,421.967 541.697,410.165 533.241,405.786C531.182,404.72 528.763,404.6 526.608,405.455C519.565,408.254 503.323,414.707 495.046,417.995C492,419.205 490,422.152 490,425.43C490,437.86 490,467.815 490,474.34C490,475.18 490.132,476.015 490.392,476.814C492.027,481.839 498.403,501.439 502.58,514.282C503.413,516.841 505.476,518.81 508.071,519.522C510.666,520.235 513.445,519.594 515.467,517.819C515.653,517.655 515.828,517.502 515.99,517.36C516.788,516.658 517.439,515.805 517.904,514.85C519.981,510.581 526.105,498.002 528.755,492.559C529.56,490.904 530.912,489.577 532.582,488.803C539.881,485.417 560.697,475.763 569.315,471.766C571.699,470.66 573.387,468.454 573.833,465.864C575.066,458.694 577.603,443.941 579.008,435.768Z" style="fill:rgb(119,237,172);"/>
                </g>
            </g>
        </g>
        <g transform="matrix(0.282631,0,0,0.282631,569.392,175.162)">
            <text x="476.918px" y="153.663px" style="font-family:'NotoSansJP-Regular', 'Noto Sans JP', sans-serif;font-size:113.222px;fill:rgb(139,204,255);">チスク</text>
        </g>
    </g>
</svg>
